:version 1.10
:name ASF
:units
  mass 1
  length 1
  angle deg
:documentation
  ASF file generated by Kaydara
:root
  axis xyz
  order  tx ty tz rx ry rz
  position 0 0 0
  orientation 0 0 0
:bonedata
  begin
    id 1
    name RightUpLegDummy
    direction -0.718183 -0.695806 0.00816078
    length 4.904
    axis 0 0 0 xyz
  end
  begin
    id 2
    name RightUpLeg
    direction 3.53989e-006 -0.995788 0.0916897
    length 17.4976
    axis -3.49089 -0.000906621 0.000287158 xyz
    dof rx ry rz
  end
  begin
    id 3
    name RightLeg
    direction 0.00371093 -0.995096 -0.0988418
    length 16.5821
    axis 3.68512 0.0193738 -0.131023 xyz
    dof rx ry rz
  end
  begin
    id 4
    name RightFoot
    direction 0.000791514 -0.46099 0.887405
    length 3.77069
    axis 4.84075e-005 -0.120479 -0.188788 xyz
    dof rx ry rz
  end
  begin
    id 5
    name RightToes
    direction 0.00124746 -0.014064 0.9999
    length 3.85082
    axis 0.00048216 0.542163 -0.142577 xyz
    dof rx ry rz
  end
  begin
    id 6
    name SpineDummy
    direction 8.36599e-015 1 5.97571e-016
    length 4.6813
    axis 0 0 0 xyz
  end
  begin
    id 7
    name Spine
    direction -4.63632e-008 0.999988 0.00495137
    length 10.1015
    axis -0.00138897 0.000121419 3.25764e-006 xyz
    dof rx ry rz
  end
  begin
    id 8
    name Spine1
    direction 0 0 0
    length 0
    axis -0.00138896 0.000121452 2.39764e-006 xyz
    dof rx ry rz
  end
  begin
    id 9
    name HEadDummy
    direction -3.91456e-008 0.999999 0.00127422
    length 3.43865
    axis -0.00138896 0.000121452 2.39764e-006 xyz
  end
  begin
    id 10
    name HEad
    direction -0.0222688 0.980941 0.193023
    length 5.12695
    axis -0.00138895 0.000121452 2.39764e-006 xyz
    dof rx ry rz
  end
  begin
    id 11
    name LeftShoulder1Dummy
    direction 0.998891 -0.0402508 -0.0244456
    length 3.5433
    axis -0.00138896 0.000121452 2.39764e-006 xyz
  end
  begin
    id 12
    name LeftShoulder1
    direction 0.99951 -0.000327743 0.0313091
    length 4.05031
    axis -0.00138896 0.000121452 2.39764e-006 xyz
    dof rx ry rz
  end
  begin
    id 13
    name LeftArm
    direction 0.998561 -0.00100054 -0.0536182
    length 10.3537
    axis -23.1894 0.134784 0.96751 xyz
    dof rx ry rz
  end
  begin
    id 14
    name LeftForeArm
    direction 0.998903 0.00866434 0.046012
    length 8.70632
    axis -9.91835 -0.06569 -0.177792 xyz
    dof rx ry rz
  end
  begin
    id 15
    name LeftHand
    direction 0.992938 -0.0411636 0.11126
    length 5.32135
    axis -0.00960227 -0.00340091 0.185174 xyz
    dof rx ry rz
  end
  begin
    id 16
    name RightShoulderDummy
    direction -0.998891 -0.0402509 -0.0244414
    length 3.5433
    axis -0.00138896 0.000121452 2.39764e-006 xyz
  end
  begin
    id 17
    name RightShoulder
    direction -0.99951 -0.000327827 0.0313133
    length 4.05031
    axis 0.215806 0.000203644 -0.00680151 xyz
    dof rx ry rz
  end
  begin
    id 18
    name RightArm
    direction -0.998573 -0.000999583 -0.053403
    length 10.3947
    axis -23.2009 -0.134239 -0.9641 xyz
    dof rx ry rz
  end
  begin
    id 19
    name RightForeArm
    direction -0.998898 0.00868026 0.0461306
    length 8.68355
    axis -9.92322 0.0658061 0.178869 xyz
    dof rx ry rz
  end
  begin
    id 20
    name RightHand
    direction -0.992843 -0.0414603 0.112003
    length 5.28593
    axis -0.00960634 0.00330671 -0.185226 xyz
    dof rx ry rz
  end
  begin
    id 21
    name LeftUpLegDummy
    direction 0.718183 -0.695806 0.00816078
    length 4.904
    axis 0 0 0 xyz
  end
  begin
    id 22
    name LeftUpLeg
    direction -6.8115e-006 -0.995793 0.0916336
    length 17.4976
    axis -3.48766 0.00143441 -0.000523914 xyz
    dof rx ry rz
  end
  begin
    id 23
    name LeftLeg
    direction -0.00601357 -0.995091 -0.0987824
    length 16.5821
    axis 3.68177 -0.00654038 -0.00028478 xyz
    dof rx ry rz
  end
  begin
    id 24
    name LeftFoot
    direction -0.00417578 -0.460984 0.887399
    length 3.77069
    axis 1.87232e-006 4.66002e-005 -8.1837e-006 xyz
    dof rx ry rz
  end
  begin
    id 25
    name LeftToes
    direction 0.00818058 -0.00485161 0.999955
    length 3.85048
    axis 1.06246e-005 4.65855e-005 -8.18502e-006 xyz
    dof rx ry rz
  end
:hierarchy
  begin
    root RightUpLegDummy SpineDummy LeftUpLegDummy
    RightUpLegDummy RightUpLeg
    RightUpLeg RightLeg
    RightLeg RightFoot
    RightFoot RightToes
    SpineDummy Spine
    Spine Spine1
    Spine1 HEadDummy LeftShoulder1Dummy RightShoulderDummy
    HEadDummy HEad
    LeftShoulder1Dummy LeftShoulder1
    LeftShoulder1 LeftArm
    LeftArm LeftForeArm
    LeftForeArm LeftHand
    RightShoulderDummy RightShoulder
    RightShoulder RightArm
    RightArm RightForeArm
    RightForeArm RightHand
    LeftUpLegDummy LeftUpLeg
    LeftUpLeg LeftLeg
    LeftLeg LeftFoot
    LeftFoot LeftToes
  end

:SAMPLES-PER-SECOND 30
:FULLY-SPECIFIED
:DEGREES
1
root  0.430482 39.7459 -4.50859 4.7552 -78.3475 -8.09331
RightUpLeg  -2.67463 -8.44591 -5.48623
RightLeg  7.83646 -26.1685 -3.66843
RightFoot  4.48616 -1.38903 10.1906
RightToes  -1.33073e-015 0 -3.6325e-017
Spine  9.30611 -1.53332 6.45321
Spine1  7.66255 -1.98387 4.3712
HEad  46.7963 -6.55018 -0.0453071
LeftShoulder1  1.84818 -4.22417 -17.2629
LeftArm  -6.70796 20.271 -58.4652
LeftForeArm  6.34997 -8.64389 -12.8279
LeftHand  -0.216178 0.647148 5.26804
RightShoulder  1.03309 0.855893 17.1447
RightArm  -21.8278 -8.78796 41.1544
RightForeArm  9.92903 6.70331 10.0394
RightHand  -0.180289 -3.58422 -10.7913
LeftUpLeg  -12.4807 9.80631 14.9778
LeftLeg  21.5749 -1.4976 -0.339226
LeftFoot  0.114218 1.8759 -18.5711
LeftToes  -4.0021e-011 8.38769e-011 -3.99229e-011
2
root  0.450456 39.7887 -4.41582 4.82663 -78.9401 -8.14977
RightUpLeg  -2.47625 -8.26482 -5.55625
RightLeg  7.01818 -25.89 -3.43156
RightFoot  4.97351 -1.39574 9.953
RightToes  -1.33073e-015 0 -3.6325e-017
Spine  9.01154 -1.5366 6.199
Spine1  7.7278 -2.00033 4.20866
HEad  47.4238 -6.21125 -0.10194
LeftShoulder1  1.87666 -4.30616 -17.3868
LeftArm  -6.53067 19.875 -58.412
LeftForeArm  2.06855 -9.62672 -12.5172
LeftHand  -0.232021 0.876552 5.92127
RightShoulder  0.992529 0.762699 16.6719
RightArm  -20.7448 -7.66927 41.549
RightForeArm  7.45432 9.45263 9.66564
RightHand  -0.257568 -2.98537 -11.9035
LeftUpLeg  -10.7846 7.08684 15.5775
LeftLeg  18.701 2.84401 1.27671
LeftFoot  0.554977 1.75601 -16.7948
LeftToes  -4.0021e-011 8.38769e-011 -3.99229e-011
3
root  0.456167 39.8246 -4.17834 5.9114 -79.8184 -8.98451
RightUpLeg  -2.41245 -8.05112 -5.68695
RightLeg  5.87846 -25.418 -3.0802
RightFoot  5.75694 -1.45925 9.946
RightToes  -1.33073e-015 0 -3.6325e-017
Spine  7.98534 -1.59552 5.86488
Spine1  7.99472 -2.14664 4.09505
HEad  48.4036 -5.87547 -0.352855
LeftShoulder1  1.89115 -4.34902 -17.4449
LeftArm  -5.16733 18.803 -58.4913
LeftForeArm  -4.04979 -11.542 -11.8613
LeftHand  -0.262229 1.07625 6.98969
RightShoulder  0.944666 0.656625 16.0661
RightArm  -15.9098 -5.77211 42.2474
RightForeArm  1.02716 15.4233 7.98378
RightHand  -0.430392 -1.88426 -14.0522
LeftUpLeg  -7.82779 2.98255 16.0863
LeftLeg  13.2824 8.88349 3.21332
LeftFoot  1.40558 1.51161 -13.575
LeftToes  -4.0021e-011 8.38769e-011 -3.99229e-011
4
root  0.448687 39.8196 -3.8406 8.97133 -80.4969 -11.5115
RightUpLeg  -2.60889 -7.93577 -5.75639
RightLeg  4.79021 -24.9358 -2.59101
RightFoot  6.51285 -1.57154 10.2651
RightToes  -1.33073e-015 0 -3.6325e-017
Spine  6.56706 -1.70682 5.65038
Spine1  8.26888 -2.42566 4.21591
HEad  48.8828 -5.92986 -0.792922
LeftShoulder1  1.86303 -4.26709 -17.3271
LeftArm  -2.00199 17.3021 -58.8764
LeftForeArm  -7.67296 -13.9167 -10.8517
LeftHand  -0.291061 1.01621 7.67924
RightShoulder  0.938999 0.681246 15.7687
RightArm  -10.3853 -4.09157 42.5889
RightForeArm  -4.68585 22.1507 5.62398
RightHand  -0.624373 -0.969167 -16.3478
LeftUpLeg  -5.28359 4.33762 15.5026
LeftLeg  7.68241 8.09454 4.4239
LeftFoot  2.7125 1.42176 -11.623
LeftToes  -4.0021e-011 8.38769e-011 -3.99229e-011
5
root  0.477776 39.8184 -3.47264 12.7771 -80.9032 -14.7605
RightUpLeg  -2.61343 -7.88167 -5.84253
RightLeg  3.21014 -24.5723 -1.78256
RightFoot  7.43063 -1.67634 10.4265
RightToes  -1.33073e-015 0 -3.6325e-017
Spine  5.50337 -1.83021 4.9563
Spine1  8.34127 -2.858 4.8379
HEad  48.6595 -6.39411 -1.30552
LeftShoulder1  1.8166 -4.11109 -17.1984
LeftArm  2.3128 15.5836 -59.5119
LeftForeArm  -8.38907 -16.4013 -9.46353
LeftHand  -0.318419 0.717533 7.904
RightShoulder  0.959704 0.781083 15.7224
RightArm  -10.7659 -2.62756 42.0954
RightForeArm  -2.32572 27.609 5.99143
RightHand  -0.75053 -0.60068 -18.1558
LeftUpLeg  -3.82827 8.62657 15.095
LeftLeg  3.77148 3.49534 4.41224
LeftFoot  4.16108 1.70989 -12.686
LeftToes  -4.0021e-011 8.38769e-011 -3.99229e-011
6
root  0.579899 39.8357 -3.07313 14.1753 -81.1439 -15.8711
RightUpLeg  -2.37159 -7.97474 -6.34761
RightLeg  1.60917 -24.3044 -1.06503
RightFoot  8.56178 -1.77874 10.4481
RightToes  -1.33073e-015 0 -3.6325e-017
Spine  5.17213 -1.97376 3.09102
Spine1  8.31692 -3.52107 6.30275
HEad  48.1989 -7.24717 -1.79426
LeftShoulder1  1.78036 -3.94365 -17.2515
LeftArm  6.19063 13.4066 -60.0987
LeftForeArm  -7.76555 -18.3869 -8.10499
LeftHand  -0.371778 0.137795 8.26271
RightShoulder  0.96307 0.796056 15.7225
RightArm  -11.0668 -0.851444 41.5381
RightForeArm  1.31119 32.1762 7.0244
RightHand  -0.810723 -0.460843 -19.0387
LeftUpLeg  -3.13577 10.9076 15.0561
LeftLeg  2.00721 1.3806 3.46267
LeftFoot  5.11623 2.20415 -15.3899
LeftToes  -4.0021e-011 8.38769e-011 -3.99229e-011
7
root  0.756092 39.866 -2.60248 10.2809 -81.3188 -11.9134
RightUpLeg  -2.27569 -8.4426 -7.74102
RightLeg  0.817122 -23.85 -0.863314
RightFoot  9.71935 -1.91789 10.6509
RightToes  -1.33073e-015 0 -3.6325e-017
Spine  5.34603 -2.15633 0.265448
Spine1  8.40227 -4.28236 8.02776
HEad  47.8237 -8.60735 -2.16477
LeftShoulder1  1.75922 -3.84923 -17.2709
LeftArm  8.95016 10.5879 -60.4896
LeftForeArm  -7.39818 -19.6207 -7.21609
LeftHand  -0.448313 -0.543412 8.88257
RightShoulder  0.947695 0.719419 15.7712
RightArm  -10.9488 0.913592 41.5908
RightForeArm  4.68292 35.859 7.84056
RightHand  -0.861174 -0.209146 -19.2486
LeftUpLeg  -2.78935 11.2123 14.205
LeftLeg  1.29271 1.75129 2.62704
LeftFoot  5.28511 2.44577 -16.8603
LeftToes  -4.0021e-011 8.38769e-011 -3.99229e-011
8
root  0.996171 39.8968 -2.04692 1.37761 -81.4742 -2.90536
RightUpLeg  -2.56357 -9.3465 -10.016
RightLeg  0.660746 -22.8003 -0.996183
RightFoot  10.7739 -2.06537 10.922
RightToes  -1.33073e-015 0 -3.6325e-017
Spine  5.7206 -2.37614 -2.22341
Spine1  8.49633 -4.72459 8.45412
HEad  47.3704 -10.4202 -2.31029
LeftShoulder1  1.7556 -3.98195 -16.7631
LeftArm  10.9323 7.63871 -60.7726
LeftForeArm  -7.94743 -20.622 -6.56208
LeftHand  -0.481376 -0.872918 9.05553
RightShoulder  0.951334 0.708495 15.9295
RightArm  -11.0805 1.63996 42.6227
RightForeArm  7.65621 38.6841 8.50169
RightHand  -0.904378 0.00983054 -19.4047
LeftUpLeg  -3.01294 10.4259 12.0538
LeftLeg  1.46087 2.97084 2.13427
LeftFoot  4.94322 2.27647 -16.0292
LeftToes  -4.0021e-011 8.38769e-011 -3.99229e-011
9
root  1.28774 39.8897 -1.41346 -9.50066 -81.7393 8.11926
RightUpLeg  -3.09184 -10.4524 -12.6182
RightLeg  0.516867 -21.125 -1.11833
RightFoot  11.8104 -2.19494 11.0852
RightToes  -1.33073e-015 0 -3.6325e-017
Spine  6.35365 -2.60601 -3.29744
Spine1  8.36828 -4.58403 6.74793
HEad  46.7359 -12.1865 -2.29931
LeftShoulder1  1.77083 -4.3688 -15.7194
LeftArm  11.9615 5.21669 -60.831
LeftForeArm  -8.8297 -22.04 -5.83924
LeftHand  -0.433726 -0.724325 8.34754
RightShoulder  0.985314 0.843549 16.0155
RightArm  -11.4001 1.08384 44.6389
RightForeArm  10.0551 40.65 8.97394
RightHand  -0.900218 0.00931638 -19.3177
LeftUpLeg  -3.89582 9.33344 9.3545
LeftLeg  2.92169 4.41648 1.75597
LeftFoot  4.29545 1.95889 -14.394
LeftToes  -4.0021e-011 8.38769e-011 -3.99229e-011
